# xmcd
#
# Track frame offsets:
#	150
#	7263
#	35151
#	59094
#	90466
#	123723
#	163465
#	196277
#	242985
#
# Disc length: 3528 seconds
#
# Revision: 0
# Processed by: cddbd v1.5.2PL0 Copyright (c) Steve Scherf et al.
# Submitted via: audiograbber 1.83.01
#
DISCID=8a0dc609
DTITLE=Grateful Dead - 94-04-04 Miami Arena, Miami FL
DYEAR=1900
DGENRE=
TTITLE0=Tuning
TTITLE1=Jack Straw
TTITLE2=Jack-A-Roe
TTITLE3=Wang Dang Doodle
TTITLE4=Broken Arrow
TTITLE5=West LA Fadeaway
TTITLE6=El Paso
TTITLE7=Row Jimmy
TTITLE8=Promised Land
EXTD=
EXTT0=
EXTT1=
EXTT2=
EXTT3=
EXTT4=
EXTT5=
EXTT6=
EXTT7=
EXTT8=
PLAYORDER=
